<svg xmlns="http://www.w3.org/2000/svg" xmlns:xlink="http://www.w3.org/1999/xlink" width="1080" zoomAndPan="magnify" viewBox="0 0 810 809.999993" height="1080" preserveAspectRatio="xMidYMid meet" version="1.0"><defs><filter x="0%" y="0%" width="100%" height="100%" id="76b25e31bb"><feColorMatrix values="0 0 0 0 1 0 0 0 0 1 0 0 0 0 1 0 0 0 1 0" color-interpolation-filters="sRGB"/></filter><mask id="944a1897aa"><g filter="url(#76b25e31bb)"><rect x="-81" width="972" fill="#000000" y="-80.999999" height="971.999992" fill-opacity="0.4784"/></g></mask><clipPath id="98cb0d1347"><path d="M 0 0.0664062 L 809.992188 0.0664062 L 809.992188 810 L 0 810 Z M 0 0.0664062 " clip-rule="nonzero"/></clipPath><clipPath id="2119dd85b2"><rect x="0" width="810" y="0" height="810"/></clipPath></defs><rect x="-81" width="972" fill="#ffffff" y="-80.999999" height="971.999992" fill-opacity="1"/><rect x="-81" width="972" fill="#ffffff" y="-80.999999" height="971.999992" fill-opacity="1"/><rect x="-81" width="972" fill="#ffffff" y="-80.999999" height="971.999992" fill-opacity="1"/><g mask="url(#944a1897aa)"><g transform="matrix(1, 0, 0, 1, 0, 0.000000000000039746)"><g clip-path="url(#2119dd85b2)"><g clip-path="url(#98cb0d1347)"><path fill="#327f8f" d="M 89.875 209.554688 L 205.542969 142.796875 L 205.542969 276.316406 Z M 88.429688 461.453125 L 205.53125 393.859375 L 205.53125 416.535156 L 88.429688 484.128906 Z M 205.53125 387.152344 L 88.429688 454.742188 L 88.429688 433.742188 L 205.53125 366.152344 Z M 88.429688 406.039062 L 205.53125 338.445312 L 205.53125 359.449219 L 88.429688 427.035156 Z M 88.429688 378.328125 L 205.53125 310.734375 L 205.53125 331.738281 L 88.429688 399.328125 Z M 88.429688 348.9375 C 127.46875 326.4375 166.5 303.871094 205.53125 281.34375 L 205.53125 304.03125 L 88.429688 371.617188 Z M 146.980469 34.699219 C 126.480469 46.503906 105.996094 58.339844 85.515625 70.175781 L 85.515625 142.796875 L 209.890625 71.007812 Z M 146.980469 103.972656 L 89.871094 71.007812 L 146.980469 38.050781 L 204.085938 71.007812 Z M 88.429688 73.527344 L 144.078125 105.648438 L 88.429688 137.765625 Z M 568.507812 267.492188 L 685.613281 199.902344 L 685.613281 220.902344 L 568.507812 288.492188 Z M 568.507812 239.785156 L 685.613281 172.191406 L 685.613281 193.195312 L 568.507812 260.78125 Z M 568.507812 212.070312 L 685.613281 144.476562 L 685.613281 165.484375 L 568.507812 233.078125 Z M 547.402344 196.542969 L 664.523438 128.945312 L 682.714844 139.441406 L 565.597656 207.042969 Z M 523.402344 182.691406 L 640.519531 115.089844 L 658.710938 125.589844 L 541.59375 193.1875 Z M 449.929688 140.285156 L 567.050781 72.6875 L 586.695312 84.027344 L 469.578125 151.625 Z M 565.597656 291.011719 L 518.320312 318.300781 L 498.675781 306.957031 L 565.597656 268.335938 Z M 546.679688 334.667969 L 565.597656 323.75 L 565.597656 345.582031 Z M 565.597656 318.71875 L 542.324219 332.148438 L 522.679688 320.8125 L 565.597656 296.042969 Z M 328.46875 321.230469 L 445.574219 253.640625 L 445.574219 277.992188 L 328.46875 345.585938 Z M 328.46875 293.523438 L 445.574219 225.929688 L 445.574219 250.285156 L 328.46875 317.878906 Z M 328.46875 265.816406 L 445.574219 198.222656 L 445.574219 222.578125 L 328.46875 290.167969 Z M 516.167969 320.378906 L 399.027344 387.992188 L 377.925781 375.816406 L 495.074219 308.203125 Z M 425.933594 403.523438 L 543.0625 335.917969 L 564.148438 348.097656 L 447.027344 415.695312 Z M 540.160156 334.238281 L 423.027344 401.847656 L 401.933594 389.671875 L 519.074219 322.054688 Z M 568.507812 322.910156 L 685.613281 255.316406 L 685.613281 277.996094 L 568.507812 345.582031 Z M 685.613281 248.609375 L 568.507812 316.199219 L 568.507812 295.203125 L 685.613281 227.609375 Z M 499.398438 168.835938 L 616.519531 101.238281 L 634.710938 111.738281 L 517.59375 179.332031 Z M 610.707031 97.878906 L 493.589844 165.480469 L 475.386719 154.980469 L 592.507812 87.378906 Z M 474.671875 293.109375 L 565.597656 240.625 L 565.597656 263.304688 L 494.316406 304.441406 Z M 565.597656 235.597656 L 470.3125 290.589844 L 450.664062 279.246094 L 565.597656 212.910156 Z M 448.488281 197.382812 L 495.769531 170.089844 L 515.417969 181.425781 L 448.488281 220.058594 Z M 467.417969 153.726562 L 448.488281 164.648438 L 448.488281 142.800781 Z M 448.488281 169.671875 L 471.765625 156.234375 L 491.414062 167.578125 L 448.488281 192.347656 Z M 539.425781 195.285156 L 448.488281 247.769531 L 448.488281 225.089844 L 519.777344 183.941406 Z M 448.488281 252.792969 L 543.773438 197.792969 L 563.421875 209.136719 L 448.488281 275.472656 Z M 353.921875 361.960938 L 471.0625 294.351562 L 492.167969 306.527344 L 375.023438 374.136719 Z M 468.15625 292.675781 L 351.019531 360.285156 L 329.914062 348.105469 L 447.035156 280.503906 Z M 328.46875 238.109375 L 445.574219 170.519531 L 445.574219 194.867188 L 328.46875 262.460938 Z M 445.574219 167.160156 L 328.46875 234.757812 L 328.46875 210.386719 L 445.574219 142.796875 Z M 444.128906 140.285156 L 327.011719 207.882812 L 209.890625 140.285156 L 327.011719 72.6875 Z M 745.628906 451.167969 C 745.628906 474.816406 745.664062 498.46875 745.625 522.117188 L 808.53125 558.421875 C 808.558594 510.570312 808.539062 462.71875 808.539062 414.863281 Z M 749.976562 521.277344 L 805.632812 489.152344 L 805.632812 553.402344 Z M 805.632812 485.804688 L 748.523438 518.769531 L 748.527344 452.839844 L 805.640625 419.882812 Z M 745.625 172.40625 L 745.625 246.710938 L 809.992188 209.558594 Z M 748.535156 177.433594 L 804.1875 209.554688 L 748.535156 241.675781 Z M 447.03125 0.0664062 C 426.050781 12.148438 405.085938 24.269531 384.117188 36.378906 C 405.089844 48.480469 426.074219 60.566406 447.03125 72.6875 C 467.988281 60.566406 488.976562 48.480469 509.9375 36.378906 Z M 447.03125 3.421875 L 504.140625 36.378906 L 447.03125 69.339844 L 389.925781 36.378906 Z M 448.484375 418.210938 L 565.597656 350.613281 L 565.597656 485.804688 L 448.484375 553.398438 Z M 328.460938 622.675781 L 328.457031 485.804688 L 209.894531 417.367188 L 327.015625 349.773438 C 366.570312 372.527344 406.039062 395.425781 445.574219 418.207031 L 445.574219 555.082031 Z M 325.558594 516.039062 L 325.558594 538.714844 L 208.449219 471.121094 L 208.449219 448.445312 Z M 208.449219 419.886719 L 325.558594 487.484375 L 325.558594 511.007812 L 208.449219 443.410156 Z M 325.558594 566.421875 L 208.449219 498.828125 L 208.449219 476.152344 L 325.558594 543.746094 Z M 325.558594 594.132812 L 208.449219 526.535156 L 208.449219 503.859375 L 325.558594 571.453125 Z M 208.449219 531.566406 L 325.5625 599.164062 L 325.5625 622.675781 L 208.449219 555.082031 Z M 588.15625 361.957031 L 588.152344 497.144531 L 568.492188 485.804688 L 568.5 350.613281 Z M 612.164062 375.808594 L 612.164062 511.007812 L 593.953125 500.492188 L 593.957031 365.304688 Z M 636.167969 389.664062 L 636.167969 524.859375 L 617.960938 514.355469 L 617.960938 379.15625 Z M 660.167969 403.519531 L 660.167969 538.714844 L 641.964844 528.207031 L 641.96875 393.015625 Z M 685.613281 553.402344 L 665.964844 542.0625 L 665.96875 406.867188 L 685.613281 418.207031 Z M 546.679688 611.753906 L 663.789062 544.160156 L 684.164062 555.917969 L 567.046875 623.511719 Z M 659.433594 541.644531 L 542.320312 609.238281 L 522.675781 597.902344 L 639.789062 530.304688 Z M 587.414062 500.078125 L 470.308594 567.671875 L 449.9375 555.917969 L 567.046875 488.316406 Z M 498.671875 584.046875 L 615.785156 516.449219 L 635.433594 527.792969 L 518.316406 595.386719 Z M 611.425781 513.9375 L 494.316406 581.53125 L 474.664062 570.1875 L 591.777344 502.59375 Z M 629.960938 659.820312 L 685.613281 627.703125 L 685.613281 691.945312 Z M 624.15625 659.824219 L 688.523438 696.976562 L 688.523438 622.675781 Z M 209.890625 694.453125 L 325.5625 627.695312 L 325.558594 761.214844 Z M 543.046875 775.910156 L 425.929688 708.308594 L 447.03125 696.132812 L 564.148438 763.730469 Z M 471.03125 817.472656 L 353.90625 749.878906 L 375.011719 737.699219 L 492.128906 805.296875 Z M 351.007812 751.554688 L 468.125 819.148438 L 447.027344 831.332031 L 329.90625 763.730469 Z M 519.039062 789.769531 L 401.917969 722.167969 L 423.023438 709.988281 L 540.144531 777.585938 Z M 399.015625 723.84375 L 516.132812 791.441406 L 495.035156 803.621094 L 377.917969 736.023438 Z M 208.441406 142.796875 L 325.554688 210.386719 L 325.554688 347.265625 L 208.449219 414.855469 C 208.449219 324.160156 208.441406 233.488281 208.441406 142.796875 Z M 324.109375 625.195312 L 204.089844 694.460938 C 285.054688 741.21875 366.019531 787.980469 447.027344 834.675781 C 488.007812 811.050781 528.976562 787.390625 569.945312 763.730469 C 528.980469 740.074219 487.980469 716.472656 447.03125 692.789062 L 328.457031 761.21875 C 328.457031 716.152344 328.433594 671.09375 328.460938 626.027344 C 368.003906 603.253906 407.519531 580.421875 447.03125 557.589844 L 567.046875 626.867188 C 607.582031 603.570312 648.046875 580.140625 688.527344 556.75 L 688.527344 418.199219 L 809.984375 348.097656 L 688.527344 277.996094 L 688.527344 139.453125 C 648.035156 116.078125 607.578125 92.640625 567.046875 69.339844 L 447.027344 138.609375 L 327.015625 69.339844 C 245.96875 115.964844 165.054688 162.820312 84.070312 209.558594 L 204.089844 278.832031 L 86.972656 346.425781 L -34.5 276.320312 C -34.5 324.175781 -34.527344 372.03125 -34.492188 419.886719 C 5.507812 396.800781 45.5 373.691406 85.515625 350.613281 L 85.515625 489.164062 C 125.519531 466.074219 165.542969 443 205.539062 419.886719 L 205.539062 556.75 C 245.046875 579.578125 284.558594 602.417969 324.109375 625.195312 Z M 569.949219 348.097656 L 687.070312 280.503906 L 804.1875 348.097656 L 687.066406 415.695312 C 648.027344 393.167969 608.988281 370.632812 569.949219 348.097656 Z M -31.601562 281.335938 L 84.070312 348.097656 L -31.597656 414.859375 L -31.601562 281.335938 " fill-opacity="1" fill-rule="nonzero"/></g></g></g></g></svg>